<?xml version="1.0" standalone="no"?>
<!DOCTYPE svg PUBLIC "-//W3C//DTD SVG 20010904//EN"
 "http://www.w3.org/TR/2001/REC-SVG-20010904/DTD/svg10.dtd">
<svg version="1.0" xmlns="http://www.w3.org/2000/svg"
 width="200.000000pt" height="200.000000pt" viewBox="0 0 200.000000 200.000000"
 preserveAspectRatio="xMidYMid meet">
<metadata>
Created by potrace 1.14, written by Peter Selinger 2001-2017
</metadata>
<g transform="translate(0.000000,200.000000) scale(0.100000,-0.100000)"
fill="#000000" stroke="none">
<path d="M977 1494 c-4 -4 -7 -17 -7 -29 0 -36 -47 -133 -68 -139 -10 -3 -40
5 -68 18 -27 13 -59 26 -71 30 -12 4 -28 19 -35 34 -15 30 -42 40 -63 22 -37
-31 1 -93 43 -71 13 7 36 1 88 -23 83 -39 90 -60 35 -119 -29 -32 -39 -37 -63
-31 -19 4 -37 0 -53 -10 -31 -20 -37 -20 -95 5 -28 12 -50 29 -53 40 -7 27
-53 26 -62 -1 -9 -28 13 -53 41 -46 12 3 44 -4 74 -17 43 -19 55 -30 65 -58
10 -29 8 -38 -8 -64 -11 -16 -31 -40 -45 -52 -28 -24 -24 -53 8 -53 13 0 20 7
20 19 0 11 12 38 27 60 22 34 32 41 58 41 17 0 35 4 41 10 12 12 87 -36 79
-50 -3 -5 -1 -19 5 -30 13 -24 65 -27 78 -5 4 9 41 27 82 41 68 23 75 23 98 8
13 -9 35 -14 49 -11 29 5 79 -33 94 -71 13 -33 54 -27 54 8 0 19 -6 26 -25 28
-39 6 -80 50 -80 88 0 22 -7 38 -22 48 -19 14 -21 24 -21 96 0 45 4 85 9 90 5
5 37 -8 76 -31 55 -32 77 -53 120 -116 29 -42 53 -81 53 -87 0 -6 7 -12 16
-14 21 -4 34 27 15 34 -8 3 -38 39 -66 80 l-51 74 32 28 c56 47 63 51 86 52
29 0 41 37 19 58 -19 19 -49 7 -54 -23 -4 -18 -53 -67 -88 -85 -17 -9 -30 -6
-76 22 -30 18 -63 45 -72 61 -11 19 -22 27 -37 25 -24 -3 -122 66 -135 97 -9
21 -35 31 -47 19z m97 -100 c31 -25 56 -52 56 -60 0 -9 6 -22 14 -29 14 -14
17 -167 4 -180 -8 -8 -180 141 -195 170 -11 19 -8 32 15 84 15 33 32 61 38 61
7 0 37 -20 68 -46z m-80 -178 c106 -88 125 -110 116 -133 -6 -15 -29 -27 -79
-44 -68 -21 -72 -21 -91 -4 -12 11 -28 15 -42 12 -37 -9 -80 32 -83 81 -3 35
2 44 35 77 21 21 43 34 49 31 6 -4 19 -2 28 3 24 14 21 15 67 -23z"/>
<path d="M1276 872 c-3 -3 -6 -54 -6 -114 l0 -108 25 2 c23 2 25 6 25 55 0 57
19 80 52 62 14 -7 18 -22 18 -62 0 -49 2 -53 24 -53 22 0 24 4 24 49 1 27 -3
60 -8 73 -13 34 -53 51 -84 36 -24 -11 -25 -9 -28 25 -2 25 -8 37 -20 39 -9 1
-19 -1 -22 -4z"/>
<path d="M1687 872 c-2 -4 -3 -54 -3 -112 1 -101 2 -105 24 -108 13 -2 22 2
22 9 0 10 3 10 12 1 38 -38 118 12 118 72 -1 63 -67 104 -117 73 -10 -6 -13 2
-13 30 0 31 -4 39 -20 40 -11 1 -21 -1 -23 -5z m113 -106 c28 -35 -11 -93 -47
-70 -24 15 -28 48 -8 68 20 20 39 20 55 2z"/>
<path d="M837 830 c4 -14 0 -20 -11 -20 -20 0 -21 -29 -1 -36 9 -4 15 -11 14
-18 -8 -68 14 -106 62 -106 22 0 29 5 29 20 0 13 -7 20 -20 20 -21 0 -22 3
-22 45 0 41 1 47 13 39 6 -3 15 0 20 7 13 21 11 27 -13 31 -15 2 -22 9 -22 21
1 12 -6 17 -26 17 -23 0 -27 -4 -23 -20z"/>
<path d="M167 804 c-68 -37 -50 -135 27 -149 42 -8 89 10 84 33 -4 17 -11 18
-60 6 -36 -8 -57 26 -37 62 14 27 30 30 59 12 15 -10 22 -10 32 0 10 10 9 15
-3 28 -23 22 -69 26 -102 8z"/>
<path d="M322 811 c-9 -5 -12 -29 -10 -81 3 -67 5 -73 26 -76 20 -4 22 0 22
40 0 57 8 76 30 76 21 0 32 21 20 39 -6 10 -12 10 -28 2 -14 -7 -23 -8 -27 -1
-7 12 -16 12 -33 1z"/>
<path d="M426 812 c-3 -3 -2 -10 2 -16 20 -26 64 -145 57 -156 -4 -6 -16 -10
-26 -7 -10 3 -23 -1 -30 -9 -9 -11 -5 -16 16 -26 48 -22 73 3 121 119 41 98
42 103 21 100 -15 -2 -30 -19 -48 -57 l-26 -54 -18 52 c-11 29 -21 52 -24 53
-4 0 -14 2 -23 4 -9 2 -19 1 -22 -3z"/>
<path d="M628 801 c-2 -9 -4 -59 -3 -111 0 -99 0 -98 43 -91 5 0 7 13 5 29 -4
26 -3 27 42 27 56 0 85 28 85 81 0 56 -62 99 -108 75 -11 -6 -22 -7 -26 -4
-13 14 -34 10 -38 -6z m110 -33 c15 -15 15 -51 0 -66 -18 -18 -46 -14 -58 7
-14 27 -13 37 6 55 19 19 36 20 52 4z"/>
<path d="M989 805 c-83 -44 -39 -164 56 -152 48 7 75 36 75 83 0 31 -26 72
-47 75 -44 7 -62 5 -84 -6z m74 -46 c20 -27 10 -58 -20 -65 -27 -7 -37 0 -47
32 -4 14 -1 28 9 38 22 22 41 20 58 -5z"/>
<path d="M1479 797 c-7 -122 9 -145 101 -144 l60 0 0 83 c0 67 -3 82 -15 80
-22 -3 -30 -15 -31 -44 -1 -15 -2 -37 -3 -49 -1 -28 -40 -42 -56 -19 -7 9 -11
36 -10 61 2 25 0 45 -3 46 -4 0 -15 2 -24 4 -13 2 -18 -4 -19 -18z"/>
<path d="M1150 739 c0 -16 7 -19 44 -19 36 0 44 3 42 18 -2 13 -13 17 -44 19
-36 1 -42 -1 -42 -18z"/>
</g>
</svg>
